{
  "accessors": [
    {
      "bufferView": 2,
      "componentType": 5126,
      "count": 894,
      "max": [
        0.2102999985218048,
        0.942799985408783,
        0.0794999971985817
      ],
      "min": [
        -0.19979999959468842,
        -0.1289999932050705,
        -0.19619999825954437
      ],
      "type": "VEC3"
    },
    {
      "bufferView": 2,
      "byteOffset": 10728,
      "componentType": 5126,
      "count": 894,
      "max": [
        0.9998875856399536,
        0.9945530295372009,
        0.9993508458137512
      ],
      "min": [
        -0.9998630285263062,
        -0.999987006187439,
        -0.9984843730926514
      ],
      "type": "VEC3"
    },
    {
      "bufferView": 1,
      "componentType": 5126,
      "count": 894,
      "max": [
        0.9919999837875366,
        0.9869999885559082
      ],
      "min": [
        0.013000000268220901,
        0.012000000104308128
      ],
      "type": "VEC2"
    },
    {
      "bufferView": 0,
      "componentType": 5125,
      "count": 3588,
      "type": "SCALAR"
    },
    {
      "bufferView": 2,
      "byteOffset": 21456,
      "componentType": 5126,
      "count": 2060,
      "max": [
        0.5748999714851379,
        0.05270000174641609,
        0.14749999344348907
      ],
      "min": [
        -0.571399986743927,
        -0.6762999892234802,
        -0.23489999771118164
      ],
      "type": "VEC3"
    },
    {
      "bufferView": 2,
      "byteOffset": 46176,
      "componentType": 5126,
      "count": 2060,
      "max": [
        0.9984005093574524,
        0.9985312819480896,
        0.9999735355377197
      ],
      "min": [
        -0.9992967844009399,
        -0.9935406446456909,
        -0.9996336698532104
      ],
      "type": "VEC3"
    },
    {
      "bufferView": 1,
      "byteOffset": 7152,
      "componentType": 5126,
      "count": 2060,
      "max": [
        0.9879999756813049,
        0.9909999966621399
      ],
      "min": [
        0.009999999776482582,
        0.004999999888241291
      ],
      "type": "VEC2"
    },
    {
      "bufferView": 0,
      "byteOffset": 14352,
      "componentType": 5125,
      "count": 8196,
      "type": "SCALAR"
    },
    {
      "bufferView": 2,
      "byteOffset": 70896,
      "componentType": 5126,
      "count": 1988,
      "max": [
        0.6019999980926514,
        0.14569999277591705,
        0.05249999836087227
      ],
      "min": [
        -0.5996000170707703,
        -0.5924999713897705,
        -0.19580000638961792
      ],
      "type": "VEC3"
    },
    {
      "bufferView": 2,
      "byteOffset": 94752,
      "componentType": 5126,
      "count": 1988,
      "max": [
        0.9994627833366394,
        0.998779296875,
        0.9989351034164429
      ],
      "min": [
        -0.9996302127838135,
        -0.8945229053497314,
        -0.9976403713226318
      ],
      "type": "VEC3"
    },
    {
      "bufferView": 1,
      "byteOffset": 23632,
      "componentType": 5126,
      "count": 1988,
      "max": [
        0.9819999933242798,
        0.9940000176429749
      ],
      "min": [
        0.006000000052154064,
        0.004999999888241291
      ],
      "type": "VEC2"
    },
    {
      "bufferView": 0,
      "byteOffset": 47136,
      "componentType": 5125,
      "count": 8472,
      "type": "SCALAR"
    },
    {
      "bufferView": 2,
      "byteOffset": 118608,
      "componentType": 5126,
      "count": 622,
      "max": [
        0.08449999988079071,
        -0.6956999897956848,
        -0.02850000001490116
      ],
      "min": [
        -0.07639999687671661,
        -0.7415000200271606,
        -0.1793999969959259
      ],
      "type": "VEC3"
    },
    {
      "bufferView": 2,
      "byteOffset": 126072,
      "componentType": 5126,
      "count": 622,
      "max": [
        0.9997395873069763,
        0.9994868636131287,
        0.9999750852584839
      ],
      "min": [
        -0.9998475313186646,
        -0.9989824891090393,
        -0.9961788058280945
      ],
      "type": "VEC3"
    },
    {
      "bufferView": 1,
      "byteOffset": 39536,
      "componentType": 5126,
      "count": 622,
      "max": [
        0.9869999885559082,
        0.9890000224113464
      ],
      "min": [
        0.013000000268220901,
        0.019999999552965164
      ],
      "type": "VEC2"
    },
    {
      "bufferView": 0,
      "byteOffset": 81024,
      "componentType": 5125,
      "count": 3228,
      "type": "SCALAR"
    },
    {
      "bufferView": 2,
      "byteOffset": 133536,
      "componentType": 5126,
      "count": 1514,
      "max": [
        0.09449999779462814,
        -0.526199996471405,
        0.0348999984562397
      ],
      "min": [
        -0.08669999986886978,
        -0.8424999713897705,
        -0.1851000040769577
      ],
      "type": "VEC3"
    },
    {
      "bufferView": 2,
      "byteOffset": 151704,
      "componentType": 5126,
      "count": 1514,
      "max": [
        0.9987093806266785,
        0.9999819993972778,
        1.0
      ],
      "min": [
        -0.9987093806266785,
        -0.9996377229690552,
        -0.9999995231628418
      ],
      "type": "VEC3"
    },
    {
      "bufferView": 1,
      "byteOffset": 44512,
      "componentType": 5126,
      "count": 1514,
      "max": [
        0.9900000095367432,
        0.9869999885559082
      ],
      "min": [
        0.009999999776482582,
        0.008999999612569809
      ],
      "type": "VEC2"
    },
    {
      "bufferView": 0,
      "byteOffset": 93936,
      "componentType": 5125,
      "count": 8100,
      "type": "SCALAR"
    },
    {
      "bufferView": 2,
      "byteOffset": 169872,
      "componentType": 5126,
      "count": 591,
      "max": [
        0.21770000457763672,
        0.977400004863739,
        0.06539999693632126
      ],
      "min": [
        -0.18770000338554382,
        0.8059999942779541,
        -0.24289999902248383
      ],
      "type": "VEC3"
    },
    {
      "bufferView": 2,
      "byteOffset": 176964,
      "componentType": 5126,
      "count": 591,
      "max": [
        0.9996621608734131,
        0.9999750852584839,
        0.9990130066871643
      ],
      "min": [
        -0.9998136162757874,
        -0.9992453455924988,
        -0.9976164698600769
      ],
      "type": "VEC3"
    },
    {
      "bufferView": 1,
      "byteOffset": 56624,
      "componentType": 5126,
      "count": 591,
      "max": [
        0.9879999756813049,
        0.9879999756813049
      ],
      "min": [
        0.012000000104308128,
        0.012000000104308128
      ],
      "type": "VEC2"
    },
    {
      "bufferView": 0,
      "byteOffset": 126336,
      "componentType": 5125,
      "count": 2112,
      "type": "SCALAR"
    },
    {
      "bufferView": 2,
      "byteOffset": 184056,
      "componentType": 5126,
      "count": 18151,
      "max": [
        0.17790000140666962,
        -0.31850001215934753,
        0.07349999994039536
      ],
      "min": [
        -0.09839999675750732,
        -0.8632000088691711,
        -0.267300009727478
      ],
      "type": "VEC3"
    },
    {
      "bufferView": 2,
      "byteOffset": 401868,
      "componentType": 5126,
      "count": 18151,
      "max": [
        0.9999434947967529,
        0.9994543194770813,
        0.9999359846115112
      ],
      "min": [
        -0.9994503855705261,
        -0.9999375343322754,
        -0.9999390840530396
      ],
      "type": "VEC3"
    },
    {
      "bufferView": 1,
      "byteOffset": 61352,
      "componentType": 5126,
      "count": 18151,
      "max": [
        0.48899999260902405,
        0.24400000274181366
      ],
      "min": [
        0.00800000037997961,
        0.004000000189989805
      ],
      "type": "VEC2"
    },
    {
      "bufferView": 0,
      "byteOffset": 134784,
      "componentType": 5125,
      "count": 74970,
      "type": "SCALAR"
    }
  ],
  "asset": {
    "extras": {
      "author": "Tremolo_1404_ (https://sketchfab.com/Tremolo_1404_)",
      "license": "CC-BY-4.0 (http://creativecommons.org/licenses/by/4.0/)",
      "source": "https://sketchfab.com/3d-models/female-alan-walker-v1-dd078c734c5c47dd8979d812e0c3b99a",
      "title": "Female Alan Walker V1"
    },
    "generator": "Sketchfab-13.74.0",
    "version": "2.0"
  },
  "bufferViews": [
    {
      "buffer": 0,
      "byteLength": 434664,
      "name": "floatBufferViews",
      "target": 34963
    },
    {
      "buffer": 0,
      "byteLength": 206560,
      "byteOffset": 434664,
      "byteStride": 8,
      "name": "floatBufferViews",
      "target": 34962
    },
    {
      "buffer": 0,
      "byteLength": 619680,
      "byteOffset": 641224,
      "byteStride": 12,
      "name": "floatBufferViews",
      "target": 34962
    }
  ],
  "buffers": [
    {
      "byteLength": 1260904,
      "uri": "scene.bin"
    }
  ],
  "extensionsRequired": [
    "KHR_materials_pbrSpecularGlossiness"
  ],
  "extensionsUsed": [
    "KHR_materials_pbrSpecularGlossiness"
  ],
  "images": [
    {
      "uri": "textures/Material0_diffuse.png"
    },
    {
      "uri": "textures/Material1_diffuse.png"
    },
    {
      "uri": "textures/Material2_diffuse.png"
    },
    {
      "uri": "textures/Material3_diffuse.png"
    },
    {
      "uri": "textures/Material4_diffuse.png"
    },
    {
      "uri": "textures/Material5_diffuse.png"
    },
    {
      "uri": "textures/Material6_diffuse.png"
    }
  ],
  "materials": [
    {
      "doubleSided": true,
      "extensions": {
        "KHR_materials_pbrSpecularGlossiness": {
          "diffuseFactor": [
            1.0,
            1.0,
            1.0,
            1.0
          ],
          "diffuseTexture": {
            "index": 0
          },
          "glossinessFactor": 0.42294850537622564,
          "specularFactor": [
            1.0,
            1.0,
            1.0
          ],
          "specularGlossinessTexture": {
            "index": 0
          }
        }
      },
      "name": "Material0"
    },
    {
      "doubleSided": true,
      "extensions": {
        "KHR_materials_pbrSpecularGlossiness": {
          "diffuseFactor": [
            1.0,
            1.0,
            1.0,
            1.0
          ],
          "diffuseTexture": {
            "index": 1
          },
          "glossinessFactor": 0.42294850537622564,
          "specularFactor": [
            1.0,
            1.0,
            1.0
          ],
          "specularGlossinessTexture": {
            "index": 1
          }
        }
      },
      "name": "Material1"
    },
    {
      "doubleSided": true,
      "extensions": {
        "KHR_materials_pbrSpecularGlossiness": {
          "diffuseFactor": [
            1.0,
            1.0,
            1.0,
            1.0
          ],
          "diffuseTexture": {
            "index": 2
          },
          "glossinessFactor": 0.42294850537622564,
          "specularFactor": [
            1.0,
            1.0,
            1.0
          ],
          "specularGlossinessTexture": {
            "index": 2
          }
        }
      },
      "name": "Material2"
    },
    {
      "doubleSided": true,
      "extensions": {
        "KHR_materials_pbrSpecularGlossiness": {
          "diffuseFactor": [
            1.0,
            1.0,
            1.0,
            1.0
          ],
          "diffuseTexture": {
            "index": 3
          },
          "glossinessFactor": 0.42294850537622564,
          "specularFactor": [
            1.0,
            1.0,
            1.0
          ],
          "specularGlossinessTexture": {
            "index": 3
          }
        }
      },
      "name": "Material3"
    },
    {
      "doubleSided": true,
      "extensions": {
        "KHR_materials_pbrSpecularGlossiness": {
          "diffuseFactor": [
            1.0,
            1.0,
            1.0,
            1.0
          ],
          "diffuseTexture": {
            "index": 4
          },
          "glossinessFactor": 0.42294850537622564,
          "specularFactor": [
            1.0,
            1.0,
            1.0
          ],
          "specularGlossinessTexture": {
            "index": 4
          }
        }
      },
      "name": "Material4"
    },
    {
      "doubleSided": true,
      "extensions": {
        "KHR_materials_pbrSpecularGlossiness": {
          "diffuseFactor": [
            1.0,
            1.0,
            1.0,
            1.0
          ],
          "diffuseTexture": {
            "index": 5
          },
          "glossinessFactor": 0.42294850537622564,
          "specularFactor": [
            1.0,
            1.0,
            1.0
          ],
          "specularGlossinessTexture": {
            "index": 5
          }
        }
      },
      "name": "Material5"
    },
    {
      "doubleSided": true,
      "extensions": {
        "KHR_materials_pbrSpecularGlossiness": {
          "diffuseFactor": [
            1.0,
            1.0,
            1.0,
            1.0
          ],
          "diffuseTexture": {
            "index": 6
          },
          "glossinessFactor": 0.42294850537622564,
          "specularFactor": [
            1.0,
            1.0,
            1.0
          ],
          "specularGlossinessTexture": {
            "index": 6
          }
        }
      },
      "name": "Material6"
    }
  ],
  "meshes": [
    {
      "name": "Object_0",
      "primitives": [
        {
          "attributes": {
            "NORMAL": 1,
            "POSITION": 0,
            "TEXCOORD_0": 2
          },
          "indices": 3,
          "material": 0,
          "mode": 4
        }
      ]
    },
    {
      "name": "Object_1",
      "primitives": [
        {
          "attributes": {
            "NORMAL": 5,
            "POSITION": 4,
            "TEXCOORD_0": 6
          },
          "indices": 7,
          "material": 1,
          "mode": 4
        }
      ]
    },
    {
      "name": "Object_2",
      "primitives": [
        {
          "attributes": {
            "NORMAL": 9,
            "POSITION": 8,
            "TEXCOORD_0": 10
          },
          "indices": 11,
          "material": 2,
          "mode": 4
        }
      ]
    },
    {
      "name": "Object_3",
      "primitives": [
        {
          "attributes": {
            "NORMAL": 13,
            "POSITION": 12,
            "TEXCOORD_0": 14
          },
          "indices": 15,
          "material": 3,
          "mode": 4
        }
      ]
    },
    {
      "name": "Object_4",
      "primitives": [
        {
          "attributes": {
            "NORMAL": 17,
            "POSITION": 16,
            "TEXCOORD_0": 18
          },
          "indices": 19,
          "material": 4,
          "mode": 4
        }
      ]
    },
    {
      "name": "Object_5",
      "primitives": [
        {
          "attributes": {
            "NORMAL": 21,
            "POSITION": 20,
            "TEXCOORD_0": 22
          },
          "indices": 23,
          "material": 5,
          "mode": 4
        }
      ]
    },
    {
      "name": "Object_6",
      "primitives": [
        {
          "attributes": {
            "NORMAL": 25,
            "POSITION": 24,
            "TEXCOORD_0": 26
          },
          "indices": 27,
          "material": 6,
          "mode": 4
        }
      ]
    }
  ],
  "nodes": [
    {
      "children": [
        1
      ],
      "matrix": [
        1.0,
        0.0,
        0.0,
        0.0,
        0.0,
        -1.0,
        -4.440892098500626e-16,
        0.0,
        0.0,
        4.440892098500626e-16,
        -1.0,
        0.0,
        0.0,
        0.0,
        0.0,
        1.0
      ],
      "name": "Sketchfab_model"
    },
    {
      "children": [
        2,
        3,
        4,
        5,
        6,
        7,
        8
      ],
      "name": "Female Alan Walker V1.obj.cleaner.materialmerger.gles"
    },
    {
      "mesh": 0,
      "name": "Object_2"
    },
    {
      "mesh": 1,
      "name": "Object_3"
    },
    {
      "mesh": 2,
      "name": "Object_4"
    },
    {
      "mesh": 3,
      "name": "Object_5"
    },
    {
      "mesh": 4,
      "name": "Object_6"
    },
    {
      "mesh": 5,
      "name": "Object_7"
    },
    {
      "mesh": 6,
      "name": "Object_8"
    }
  ],
  "samplers": [
    {
      "magFilter": 9729,
      "minFilter": 9987,
      "wrapS": 10497,
      "wrapT": 10497
    }
  ],
  "scene": 0,
  "scenes": [
    {
      "name": "Sketchfab_Scene",
      "nodes": [
        0
      ]
    }
  ],
  "textures": [
    {
      "sampler": 0,
      "source": 0
    },
    {
      "sampler": 0,
      "source": 1
    },
    {
      "sampler": 0,
      "source": 2
    },
    {
      "sampler": 0,
      "source": 3
    },
    {
      "sampler": 0,
      "source": 4
    },
    {
      "sampler": 0,
      "source": 5
    },
    {
      "sampler": 0,
      "source": 6
    }
  ]
}
