{
  "accessors": [
    {
      "bufferView": 1,
      "componentType": 5126,
      "count": 65532,
      "max": [
        2.9409306049346924,
        3.9688422679901123,
        1.4345017671585083
      ],
      "min": [
        -2.931903600692749,
        -12.576765060424805,
        -1.1404263973236084
      ],
      "type": "VEC3"
    },
    {
      "bufferView": 1,
      "byteOffset": 786384,
      "componentType": 5126,
      "count": 65532,
      "max": [
        0.9999877214431763,
        0.9998649954795837,
        0.9999940991401672
      ],
      "min": [
        -0.9999945163726807,
        -0.9999774098396301,
        -0.9999938011169434
      ],
      "type": "VEC3"
    },
    {
      "bufferView": 0,
      "componentType": 5125,
      "count": 328566,
      "type": "SCALAR"
    },
    {
      "bufferView": 1,
      "byteOffset": 1572768,
      "componentType": 5126,
      "count": 65532,
      "max": [
        2.9409306049346924,
        3.9693121910095215,
        1.3787742853164673
      ],
      "min": [
        -2.940938711166382,
        -12.57737922668457,
        -1.1405463218688965
      ],
      "type": "VEC3"
    },
    {
      "bufferView": 1,
      "byteOffset": 2359152,
      "componentType": 5126,
      "count": 65532,
      "max": [
        0.9999975562095642,
        0.9995349645614624,
        0.9999856948852539
      ],
      "min": [
        -0.999995768070221,
        -0.999995768070221,
        -0.9999960660934448
      ],
      "type": "VEC3"
    },
    {
      "bufferView": 0,
      "byteOffset": 1314264,
      "componentType": 5125,
      "count": 329064,
      "type": "SCALAR"
    },
    {
      "bufferView": 1,
      "byteOffset": 3145536,
      "componentType": 5126,
      "count": 29369,
      "max": [
        2.9345879554748535,
        3.967712879180908,
        1.4339823722839355
      ],
      "min": [
        -2.940938711166382,
        -12.575082778930664,
        -1.1298785209655762
      ],
      "type": "VEC3"
    },
    {
      "bufferView": 1,
      "byteOffset": 3497964,
      "componentType": 5126,
      "count": 29369,
      "max": [
        0.9999975562095642,
        0.9997386336326599,
        0.9999345541000366
      ],
      "min": [
        -0.9999867677688599,
        -0.9999595284461975,
        -0.9999960660934448
      ],
      "type": "VEC3"
    },
    {
      "bufferView": 0,
      "byteOffset": 2630520,
      "componentType": 5125,
      "count": 72384,
      "type": "SCALAR"
    }
  ],
  "asset": {
    "extras": {
      "author": "cgspektor (https://sketchfab.com/cgspektor)",
      "license": "CC-BY-4.0 (http://creativecommons.org/licenses/by/4.0/)",
      "source": "https://sketchfab.com/3d-models/male-body-3-29bab16b5655477483aef5c7c31505f5",
      "title": "Male Body 3"
    },
    "generator": "Sketchfab-14.54.0",
    "version": "2.0"
  },
  "bufferViews": [
    {
      "buffer": 0,
      "byteLength": 2920056,
      "name": "floatBufferViews",
      "target": 34963
    },
    {
      "buffer": 0,
      "byteLength": 3850392,
      "byteOffset": 2920056,
      "byteStride": 12,
      "name": "floatBufferViews",
      "target": 34962
    }
  ],
  "buffers": [
    {
      "byteLength": 6770448,
      "uri": "scene.bin"
    }
  ],
  "materials": [
    {
      "doubleSided": true,
      "name": "Merged_body031_001",
      "pbrMetallicRoughness": {
        "baseColorFactor": [
          0.5,
          0.5,
          0.5,
          1.0
        ],
        "metallicFactor": 0.0
      }
    }
  ],
  "meshes": [
    {
      "name": "Merged_body031_001_Merged_body031_001_0",
      "primitives": [
        {
          "attributes": {
            "NORMAL": 1,
            "POSITION": 0
          },
          "indices": 2,
          "material": 0,
          "mode": 4
        }
      ]
    },
    {
      "name": "Merged_body031_001_Merged_body031_001_0",
      "primitives": [
        {
          "attributes": {
            "NORMAL": 4,
            "POSITION": 3
          },
          "indices": 5,
          "material": 0,
          "mode": 4
        }
      ]
    },
    {
      "name": "Merged_body031_001_Merged_body031_001_0",
      "primitives": [
        {
          "attributes": {
            "NORMAL": 7,
            "POSITION": 6
          },
          "indices": 8,
          "material": 0,
          "mode": 4
        }
      ]
    }
  ],
  "nodes": [
    {
      "children": [
        1
      ],
      "matrix": [
        1.0,
        0.0,
        0.0,
        0.0,
        0.0,
        2.220446049250313e-16,
        -1.0,
        0.0,
        0.0,
        1.0,
        2.220446049250313e-16,
        0.0,
        0.0,
        0.0,
        0.0,
        1.0
      ],
      "name": "Sketchfab_model"
    },
    {
      "children": [
        2
      ],
      "matrix": [
        0.009999999776482582,
        0.0,
        0.0,
        0.0,
        0.0,
        0.0,
        0.009999999776482582,
        0.0,
        0.0,
        -0.009999999776482582,
        0.0,
        0.0,
        0.0,
        0.0,
        0.0,
        1.0
      ],
      "name": "1e8390ded25e456792e25d693b7d98db.fbx"
    },
    {
      "children": [
        3
      ],
      "name": "RootNode"
    },
    {
      "children": [
        4,
        5,
        6
      ],
      "name": "Merged_body031_001"
    },
    {
      "mesh": 0,
      "name": "Merged_body031_001_Merged_body031_001_0"
    },
    {
      "mesh": 1,
      "name": "Merged_body031_001_Merged_body031_001_0"
    },
    {
      "mesh": 2,
      "name": "Merged_body031_001_Merged_body031_001_0"
    }
  ],
  "scene": 0,
  "scenes": [
    {
      "name": "Sketchfab_Scene",
      "nodes": [
        0
      ]
    }
  ]
}
